<svg width="98" height="136" viewBox="0 0 98 136" fill="none" xmlns="http://www.w3.org/2000/svg">
<path d="M33.1352 98.8485C26.5138 96.8653 21.783 93.4775 18.9426 88.685C16.1635 83.9109 15.7472 78.2745 17.6937 71.7757L19.5116 65.7061L31.6508 69.342L29.8329 75.4116C28.9698 78.2931 29.0874 80.8002 30.1857 82.933C31.3023 85.0045 33.3013 86.4718 36.1829 87.3348C38.8805 88.1428 41.2037 87.9701 43.1526 86.8168C45.1627 85.6818 46.6085 83.6429 47.4899 80.7001L57.6813 46.6735L46.6457 43.3682L49.951 32.3326L80.483 41.4773L77.1776 52.5129L69.8205 50.3094L59.6291 84.3359C57.6276 91.0186 54.2856 95.5962 49.6034 98.0687C44.9394 100.48 39.4501 100.74 33.1352 98.8485Z" fill="#111315"/>
<path d="M38.1352 100.848C31.5138 98.8653 26.783 95.4775 23.9426 90.685C21.1635 85.9109 20.7472 80.2745 22.6937 73.7757L24.5116 67.7061L36.6508 71.342L34.8329 77.4116C33.9698 80.2931 34.0874 82.8002 35.1857 84.933C36.3023 87.0045 38.3013 88.4718 41.1829 89.3348C43.8805 90.1428 46.2037 89.9701 48.1526 88.8168C50.1627 87.6818 51.6085 85.6429 52.4899 82.7001L62.6813 48.6735L51.6457 45.3682L54.951 34.3326L85.483 43.4773L82.1776 54.5129L74.8205 52.3094L64.6291 86.3359C62.6276 93.0186 59.2856 97.5962 54.6034 100.069C49.9394 102.48 44.4501 102.74 38.1352 100.848Z" fill="#FAFDFF"/>
</svg>
